<svg xmlns="http://www.w3.org/2000/svg" width="100" height="100"><style>@media (prefers-color-scheme:dark){.a{fill:#f0f0f0}}</style><path fill="#0f0f0f" d="M71.247 98.334a112.8 112.8 0 0 0-1.212-32.768q1.995.05 3.992.05a62 62 0 0 0 9.625-.68c2.413-.267 4.68-1.14 6.516-2.507.882-.81 1.429-1.846 1.556-2.948.128-1.102-.171-2.21-.85-3.151-.875-1.251-2.069-2.317-3.492-3.117a35.6 35.6 0 0 0-5.494-2.674 89.5 89.5 0 0 0 9.653-8.705c3.45-3.464 6.063-7.478 7.69-11.812.807-2.3.982-4.729.51-7.096-.535-2.384-2.04-4.528-4.247-6.05-4.785-2.77-10.477-4.158-16.247-3.964-2.753-.093-5.518-.032-8.272.036-3.427.084-6.851.288-10.261.584q-3.317.287-6.62.695a42 42 0 0 0-1.958-6.454c-.417-1.63-1.258-3.158-2.46-4.471-1.2-1.314-2.732-2.378-4.48-3.114a7.8 7.8 0 0 0-2.792-.11 7.4 7.4 0 0 0-2.6.88c-1.84 1.01-3.452 2.3-4.755 3.805a47.5 47.5 0 0 0-4.835 6.296 95 95 0 0 0-5.232 9.065l-1.764.526c-3.803 1.162-8.666 2.743-9.94 6.395a4.4 4.4 0 0 0-.115 2.05 4.7 4.7 0 0 0 .835 1.922 80 80 0 0 0-7.014 4.102c-2.135 1.314-3.983 2.94-5.458 4.805A7.9 7.9 0 0 0 .13 43.101a7.4 7.4 0 0 0 .148 3.393c.862 2.078 2.245 3.968 4.052 5.539s3.993 2.782 6.406 3.55l.614.252-.436 1.688-.536 2.216-.233 1.04-.114.51c-.038.174-.144.763-.042.257l-.066.338a87 87 0 0 0-.69 4.026l-.172 1.278-.087.653c-.022.165-.076.827-.02.29l-.064.629q-.115 1.17-.166 2.342-.046 1.046-.016 2.09a8.2 8.2 0 0 0 .146 1.783q.14 1.196.56 2.344c.075.196.208.373.386.512.178.14.396.237.631.283.236.045.481.038.712-.022s.44-.17.606-.32a14.2 14.2 0 0 0 3.129-3.025.95.95 0 0 0 .053-.814 1.16 1.16 0 0 0-.62-.617 1.46 1.46 0 0 0-.948-.074 1.25 1.25 0 0 0-.742.51 3.9 3.9 0 0 1-.857.907c.002-.376-.086-.794-.09-1.132-.005-.474.01-.948.034-1.422l.114-1.528.017-.153.046-.4.114-.89c.171-1.238.385-2.476.627-3.707a124 124 0 0 1 1.97-8.394 117 117 0 0 0 11.256 3.018c2.487.568 4.968 1.182 7.488 1.633 5.821 1.043 11.724 1.797 17.619 2.446q1.95.218 3.908.414a375 375 0 0 1-9.858 6.185c-6.051 3.686-12.268 7.17-18.307 10.865C21.36 84.44 16.566 87.98 12.49 92.086c-.288.28-.489.619-.586.984a1.94 1.94 0 0 0 .032 1.104c.138.36.382.685.708.942.326.258.724.44 1.155.527 3.285.6 6.706.292 9.775-.877 1.68-.53 3.306-1.185 4.917-1.854l2.018-.85 1.011-.428c.118-.05.57-.24.279-.132l.26-.1c.566-.161 1.038-.504 1.318-.956s.346-.978.185-1.471c-.177-.492-.575-.904-1.106-1.145a2.6 2.6 0 0 0-1.727-.142c-2.735 1.041-5.47 2.119-8.29 2.983q-1.107.339-2.248.603l-.11.024c.532-.428 1.082-.84 1.64-1.244l.346-.245.525-.36 1.245-.827c2.992-1.946 6.09-3.78 9.186-5.599 6.107-3.587 12.209-7.186 18.197-10.915a319 319 0 0 0 6.59-4.22c.203 2.167.385 4.334.608 6.501a75 75 0 0 0 2.33 13.19c1.064 4.116 3.098 8.003 5.976 11.423.24.312.567.568.953.742.385.175.816.263 1.252.256a2.7 2.7 0 0 0 1.493-.492c.42-.302.71-.715.824-1.174m12.73-42.067.32.184.342.22c.55.36 1.064.76 1.533 1.196l.108.119.27.342.161.244.013.028.12.352.014.191-.024.12-.07.115-.029.028-.204.185-.225.14-.546.274-.195.085a18.4 18.4 0 0 1-3.206.781l-.266.042-.115.017-1.065.126c-.729.077-1.461.134-2.195.18a81 81 0 0 1-4.892.143q-2.328.001-4.656-.083l-.237-1.042a362 362 0 0 0 8.981-6.637 46 46 0 0 1 4.913 2.046zM34.531 37.703l-.214-.066-.505-.16-1.004-.324a88 88 0 0 1-2.135-.739 64 64 0 0 1-3.9-1.554 41 41 0 0 1-3.534-1.762l-.23-.134.076-.182.573-1.32.218-.089.395-.159.102-.04a54 54 0 0 1 6.474-2.057 40 40 0 0 1 3.195-.65l.181-.028.063-.008.753-.093a33 33 0 0 1 1.617-.14 28 28 0 0 1 3.044-.02l.288.018.616.06a22 22 0 0 1 2.902.52l.68.182.034.01.246.078c.94.316 1.85.697 2.718 1.14l.633.335.403.236q.56.351 1.091.736c.867.63 1.679 1.313 2.427 2.046l.264.26.499.546.74.871q.351 2.356.683 4.713l.418 3.002c-.998-.282-1.997-.565-3.004-.824-2.763-.71-5.54-1.378-8.306-2.075-2.852-.72-5.695-1.476-8.501-2.33m13.838-18.464 1.225-.192.612-.093.514-.075c.273 1.62.512 3.245.763 4.868l.642 4.125a21.7 21.7 0 0 0-5.675-2.795 29.7 29.7 0 0 0-13.517-.819 43 43 0 0 0-6.694 1.578l.956-1.959c4.502-1.291 9.096-2.363 13.711-3.292q2.505-.504 5.026-.938zm11.914 29.554a94 94 0 0 1 1.802 5.256 93 93 0 0 1 1.338 4.71l-.71.501-1.28.89c-.42-2.728-.869-5.454-1.282-8.185l-.496-3.321zm9.33 5.447-1.86 1.377a102 102 0 0 0-1.677-5.435c1.64.408 3.276.831 4.902 1.279l1.746.493zm-8.7-36.54a156 156 0 0 1 18.533-.623l1.943.09.267.02.258.017 1.141.11c1.346.139 2.68.35 3.994.633q.784.171 1.55.39l.682.22.97.37q.8.335 1.548.749l.055.032.236.154.762.559.6.525.029.029.186.21.475.622.214.328.163.287q.297.641.48 1.312l.04.163.057.294c.054.35.08.704.095 1.055q.02.432-.012.863l-.033.276c-.067.5-.17.996-.291 1.49-.112.461-.252.918-.405 1.37l-.249.684-.061.156-.104.244a28 28 0 0 1-3.403 5.585l-.511.655-.106.132-.143.172q-.59.71-1.215 1.398a58 58 0 0 1-2.527 2.627 103 103 0 0 1-9.214 7.896c-4.12-1.299-8.353-2.316-12.589-3.328a87 87 0 0 0-2.714-6.044 34.5 34.5 0 0 0-4.269-6.75l-.083-.099q-.345-2.209-.705-4.417l-.383-2.282-.158-.847.053.261-.012-.057-.09-.498c-.283-1.583-.513-3.174-.78-4.759l-.282-1.647q3-.363 6.008-.627M34.42 11.49q.567-.81 1.168-1.604l.558-.724.278-.35.067-.08a30 30 0 0 1 2.287-2.5q.54-.525 1.123-1.012l.532-.426.222-.167q.508-.348 1.06-.643l.457-.224.267-.105.736-.197.2-.016.253-.005.249.032.28.065.2.086.383.183.146.093q.45.313.832.686l.1.114.432.523c.251.325.475.665.687 1.008l.32.55.04.069.146.29a30 30 0 0 1 2.002 5.638q.265 1.003.488 2.013-5.055.736-10.055 1.726a188 188 0 0 0-10.003 2.267 85 85 0 0 1 4.545-7.29M21.439 27.58l-1.96.826-1.286.57-.069-.108-.048-.113-.077-.207-.048-.343.037-.145.11-.221.11-.167q.3-.314.652-.59l.057-.043.576-.353a17 17 0 0 1 2.181-1.043l.538-.205.236-.086zm-8.934 23.91q-1.636-.708-3.156-1.583l-.27-.169-.648-.434q-.667-.466-1.273-.987l-.518-.477-.121-.136a8.4 8.4 0 0 1-.846-1.132l-.043-.07-.1-.19-.293-.733-.146-.55-.044-.528.019-.483.079-.37.166-.532.176-.347q.242-.443.55-.854l.363-.427.603-.607c.366-.346.754-.673 1.153-.99l.623-.472.062-.045.274-.195a56 56 0 0 1 2.795-1.773 88 88 0 0 1 5.402-3.006l.954.694a195 195 0 0 0-4.648 12.984 188 188 0 0 0-1.056 3.435zm39.299 8.441a330 330 0 0 1-10.193-1.305 201 201 0 0 1-7.304-1.163c-2.575-.467-5.11-1.103-7.651-1.687-2.457-.567-4.904-1.17-7.316-1.865l-.907-.268-.231-.069-.206-.065a66 66 0 0 1-1.936-.639l-.248-.088a195 195 0 0 1 5.363-15.36l.178-.442.339.185a77 77 0 0 0 16.499 5.932c5.412 1.454 10.924 2.635 16.296 4.197l.486.14c.538 3.85 1.084 7.699 1.67 11.549l.224 1.474q-2.535-.242-5.063-.526m12.841 23.755a59 59 0 0 1-.401-1.822l-.01-.05-.01-.047-.086-.46-.193-1.076a91 91 0 0 1-.57-3.856c-.324-2.51-.558-5.028-.807-7.543-.12-1.223-.264-2.441-.42-3.659q1.379.1 2.76.176l.18.986q.384 2.139.683 4.29a116 116 0 0 1 1.11 17.05q-.01 1.353-.05 2.707a39.6 39.6 0 0 1-2.186-6.696" class="a"/></svg>