<svg width="30" height="30" viewBox="0 0 30 30" fill="none" xmlns="http://www.w3.org/2000/svg">
<g clip-path="url(#clip0_647_60)">
<path d="M14.9931 19.217C16.1064 19.217 17.1742 18.7747 17.9614 17.9874C18.7487 17.2002 19.191 16.1324 19.191 15.0191C19.191 13.9057 18.7487 12.838 17.9614 12.0507C17.1742 11.2634 16.1064 10.8212 14.9931 10.8212C13.8797 10.8212 12.812 11.2634 12.0247 12.0507C11.2374 12.838 10.7952 13.9057 10.7952 15.0191C10.7952 16.1324 11.2374 17.2002 12.0247 17.9874C12.812 18.7747 13.8797 19.217 14.9931 19.217Z" stroke="white" stroke-width="2" stroke-miterlimit="10" stroke-linecap="round" stroke-linejoin="round"/>
<path d="M1 16.2506V13.7879C1 12.3326 2.18941 11.1292 3.65867 11.1292C6.1914 11.1292 7.22689 9.3381 5.95352 7.1412C5.22589 5.88183 5.65967 4.24465 6.93303 3.51701L9.35382 2.1317C10.4593 1.47403 11.8866 1.86584 12.5442 2.97128L12.6982 3.23715C13.9575 5.43405 16.0285 5.43405 17.3018 3.23715L17.4558 2.97128C18.1134 1.86584 19.5407 1.47403 20.6462 2.1317L23.067 3.51701C24.3403 4.24465 24.7741 5.88183 24.0465 7.1412C22.7731 9.3381 23.8086 11.1292 26.3413 11.1292C27.7966 11.1292 29 12.3186 29 13.7879V16.2506C29 17.7059 27.8106 18.9093 26.3413 18.9093C23.8086 18.9093 22.7731 20.7004 24.0465 22.8973C24.7741 24.1707 24.3403 25.7939 23.067 26.5215L20.6462 27.9068C19.5407 28.5645 18.1134 28.1727 17.4558 27.0672L17.3018 26.8014C16.0425 24.6045 13.9715 24.6045 12.6982 26.8014L12.5442 27.0672C11.8866 28.1727 10.4593 28.5645 9.35382 27.9068L6.93303 26.5215C6.32308 26.1703 5.87737 25.5915 5.69374 24.912C5.5101 24.2325 5.60353 23.508 5.95352 22.8973C7.22689 20.7004 6.1914 18.9093 3.65867 18.9093C2.18941 18.9093 1 17.7059 1 16.2506Z" stroke="white" stroke-width="2" stroke-miterlimit="10" stroke-linecap="round" stroke-linejoin="round"/>
</g>
<defs>
<clipPath id="clip0_647_60">
<rect width="30" height="30" fill="white"/>
</clipPath>
</defs>
</svg>
